<?xml version="1.0" encoding="utf-8"?>
<!-- Generator: Adobe Illustrator 26.3.0, SVG Export Plug-In . SVG Version: 6.00 Build 0)  -->
<svg version="1.1" id="Layer_1" xmlns="http://www.w3.org/2000/svg" xmlns:xlink="http://www.w3.org/1999/xlink" x="0px" y="0px"
	 viewBox="0 0 519 233.2" style="enable-background:new 0 0 519 233.2;" xml:space="preserve">
<style type="text/css">
	.st0{fill:none;}
	.st1{fill-rule:evenodd;clip-rule:evenodd;fill:#c0c0c0;}
</style>
<g>
	<path d="M511.1,119c-1.9,1.6-2.6,3.6-3,5.7c-1.4,7.6-2,15.3-4.7,22.6c-1.4,4-3,7.9-6,11.8c0-0.9-0.1-1.2,0-1.6
		c4.6-16.6-10.7-40.4-26.7-44.8c-1.2-0.3-2.1-1.1-2.8-2c-1.7-2-3.9-3.2-6.4-4.2c-6.9-2.9-14.1-3.8-21.5-3c-4.1,0.4-8.2,2-10.1,3.9
		c8.4,0.4,17,0.6,25.4,3.8c-1,0.2-1.8,0.4-2.5,0.5c-5.6,1.2-10.8,3-15.1,7c-5.8,5.3-6.4,14.8-1.4,19.8c2.9,3,6.4,2.6,8.2-1.1
		c2.5-5.2,1.8-10.6-0.4-15.6c-0.8-1.8-0.7-2.2,0.8-2.9c9.7-4.6,19.4-5,29.2-0.2c4.8,2.4,9.1,6.5,10.2,9.3
		c-15.4-5.1-23.6,0.5-29.9,7.4c2.5-0.7,4.9-2.1,7-3.6c7.2-4.9,14.7-4.6,22.5-1.4c-8.7,0.1-16.5,4.2-25,5.2c-1.4,0.2-2.9-0.1-4.4-0.2
		l0,0l0,0c0.1,1.5,1.2,1.5,2.3,1.5c3.4,0.1,6.9,0,10.3-1c6.3-1.8,12.6-3.3,19.1-3.4c1.3,0,1.9,0.2,2.6,1.2
		c8.9,13.9,6.1,30.1-7.2,40.2c-10,7.6-21.8,10.3-34,11.6c-1.3,0.1-2.5,0.1-3.8,0.2c0.8-1,1.6-1.5,2.4-2c9.7-5.8,18.1-12.9,22.8-23.5
		c1.4-3.3,2.9-6.6,4.5-9.9c0.7-1.5,1-2.9-0.7-4.1c-0.9,0.7-0.4,2-1.5,2.7c-8.3,4.9-13.9,11.9-19.4,18.9c-4.1,5.1-7.3,10.7-11.9,15.3
		c-2.2,2.2-4.7,3.1-7.7,2.6c-3.8-0.6-7.6-1.2-11.3-2.1c-17.4-4.3-32-13.5-45.1-25.4c-9-8.3-17.8-16.9-29.9-22.3
		c4.8-0.9,9-0.4,13.3-0.9c8.1-1,15.7,0.3,22.6,5c0.5,0.3,0.9,0.8,1.5,0.2c0.7-0.8,0.1-1.2-0.4-1.7c-1.2-1-2.3-2.1-3.6-3
		c-9.2-6.8-19-11.6-31-9.5c-5.8,1-11.4,2.3-16.8,4.4c-4.7,1.9-9.5,3.4-14.3,5.1c-10.4,3.6-18.9,9.9-25.8,18.5
		c-3.8,4.2-6.2,9.3-8,14.6c-0.5,1.4-0.6,3,0.3,4.4c0.1,0.5,0.1,1.9,0.9,0.4c0.9-1.7,2.1-2.9,3.8-3.5c6.5-2.2,13.1-4.6,19.9-5.2
		c9.3-0.9,18.3-2.5,27.1-5.7c2-0.7,4.1-1.4,5.3-3.4c-11-8.2-37.3-4.2-52.1,8.5c0.7-3.4,3.9-5.2,5.5-8.1c3.5-3.5,7.2-7,11.3-9.8
		c12.4-8.3,25.4-11.7,39.7-5.7c7.7,3.2,14.2,8.4,20,14.3c1.4,4.6,2.6,9.1,2.5,14c-0.1,6.5-0.7,13.1,0.4,19.6
		c1.6,9.5,4.7,18.3,11.5,25.5c1.4,1.5,3.7,4,4.9,3.3c1.5-1,1-4,0.6-6.2c-1.2-6.6-2.4-13.2-3.6-19.9c-1.7-9.7-4.5-19-10.4-27.1
		c-1-1.4-1.6-3.1-2.2-4.8c-0.4-1.2,0.3-1,1.1-0.8c0.7,0.7,1.4,1.4,2.1,2.1c12.4,11.6,26.2,20.6,42.5,25.9
		c4.5,5.2,7.9,11.1,10.8,17.3c4.2,9,10.1,16.9,16.8,24.2c1.1,1.2,2.3,2.4,3.9,3c1.4,1.2,3,1.6,4.8,1.6c0-0.9,0-1.8,0-2.7
		c-0.2-1.8,0.4-3.7-0.4-5.5c-2.9-5.9-6-11.6-11.5-15.7c-7.7-5.7-14.1-12.6-20.1-20c-0.8-1-0.2-1,0.6-1.1c16.3,4.5,32.5,3.8,48.5-1.5
		c14.7-4.8,26.1-14.5,36.4-25.5c5.9-6.4,9.6-14.2,10.5-23.1C515,131,514.4,124.8,511.1,119L511.1,119z M465.6,111.6
		c-3.4-0.7-6.9-1.4-10.3-2.1c-3.5-0.8-7.1-1.8-10.6-2.2c-3.6-0.4-7.3-0.1-10.9-0.1c11.4-3.8,22-2.3,32,3.6
		C465.7,111,465.6,111.3,465.6,111.6L465.6,111.6z M337.9,155.4c-10.4,4.5-21.5,6.1-32.5,7.4c-5.7,0.7-10.9,3.1-16.4,4.7
		C295.4,157.1,323,150.3,337.9,155.4L337.9,155.4z M334.3,131.5c12.3-3.8,24.1-6.5,36.1,1.4C358.2,131,346.2,135.6,334.3,131.5z
		 M370,167.6c4.5,3.9,11,28.8,11.5,44C374.7,204.4,368.7,193.4,370,167.6z M445.6,221c1.3,2.9,2.7,5.8,3.6,8.9
		c-0.9,2.2-1.4-0.7-2.2-0.2c-6.6-8.1-13.7-16-18.2-25.5c-0.4-0.8-0.8-1.7-0.9-2.7C433.2,208.4,441.6,212.6,445.6,221L445.6,221z
		 M440.5,185c7.3-6.9,12.3-15.8,18.9-23.2c3.4-3.8,7-7.5,10.9-11C465.8,167,455.3,177.8,440.5,185L440.5,185z M497.9,163.3
		c9.5-12.4,10.6-27.3,13-41.9C515,135.2,511.1,151.5,497.9,163.3z"/>
	<path d="M227.7,153.8c-6.8-8.6-15.4-14.9-25.8-18.5c-4.8-1.6-9.6-3.2-14.3-5.1c-5.4-2.2-11.1-3.5-16.8-4.4c-11.9-2-21.9,2.7-31,9.5
		c-1.2,0.9-2.4,2-3.6,3c-0.5,0.4-1.1,0.9-0.4,1.7c0.6,0.7,1,0.2,1.5-0.2c6.8-4.7,14.4-6,22.6-5c4.2,0.5,8.5,0.1,13.3,0.9
		c-11.9,5.4-20.8,14-29.9,22.3c-13.1,11.9-27.6,21.1-45.1,25.4c-3.7,0.9-7.6,1.5-11.3,2.1c-3.1,0.5-5.5-0.4-7.7-2.6
		c-4.7-4.6-7.9-10.2-11.9-15.3c-5.6-7-11.1-14-19-18.6c-1.1-0.7-0.6-2-1.5-2.7c-1.7,1.2-1.4,2.6-0.7,4.1c1.5,3.3,3,6.6,4.5,9.9
		c4.7,10.6,13.1,17.7,22.8,23.5c0.8,0.5,1.6,0.9,2.4,2c-1.3-0.1-2.5-0.1-3.8-0.2c-12.3-1.3-24-4-34-11.6
		c-13.3-10-16.1-26.2-7.2-40.2c0.7-1,1.3-1.3,2.6-1.2c6.6,0.1,12.9,1.6,19.1,3.4c3.3,1,6.8,1.1,10.3,1c1.1,0,2.2,0,2.3-1.5l0,0
		c-1.4,0.1-2.9,0.4-4.4,0.2c-8.5-1-16.3-5.1-25-5.2c7.8-3.2,15.3-3.6,22.5,1.4c2.1,1.5,4.4,2.8,7,3.6c-6.3-6.9-14.6-12.5-29.9-7.4
		c1.1-2.9,5.5-7,10.2-9.3c9.7-4.8,19.4-4.4,29.2,0.2c1.5,0.7,1.6,1.1,0.8,2.9c-2.2,5-2.9,10.4-0.4,15.6c1.8,3.7,5.2,4.1,8.2,1.1
		c5-5,4.3-14.5-1.4-19.8c-4.3-3.9-9.5-5.8-15.1-7c-0.7-0.2-1.5-0.3-2.5-0.5c8.4-3.2,16.9-3.3,25.4-3.8c-1.9-1.9-6.1-3.5-10.1-3.9
		c-7.4-0.7-14.6,0.1-21.5,3c-2.4,1-4.6,2.2-6.4,4.2c-0.8,0.9-1.6,1.7-2.8,2c-16,4.3-31.3,28.2-26.7,44.8c0.1,0.3,0,0.7,0,1.6
		c-2.9-3.9-4.6-7.8-6-11.8c-2.6-7.3-3.2-15-4.7-22.6c-0.4-2.1-1.1-4.1-3-5.7c-3.3,5.8-3.9,12-3.3,18.4c0.9,8.8,4.7,16.7,10.5,23.1
		c10.1,11,21.7,20.7,36.4,25.5c15.9,5.2,32.2,6,48.5,1.5c0.7,0.1,1.4,0.1,0.6,1.1c-6,7.4-12.4,14.3-20.1,20
		c-5.5,4-8.6,9.8-11.5,15.7c-0.9,1.8-0.3,3.6-0.4,5.5c0,0.9,0,1.8,0,2.7c1.7,0,3.4-0.4,4.8-1.6c1.6-0.6,2.8-1.8,3.9-3
		c6.7-7.3,12.6-15.2,16.8-24.2c2.8-6.2,6.3-12.1,10.8-17.3c16.3-5.3,30.2-14.4,42.5-25.9c0.7-0.7,1.4-1.4,2.1-2.1
		c0.7-0.2,1.5-0.4,1.1,0.8c-0.6,1.6-1.2,3.4-2.2,4.8c-6,8.1-8.7,17.4-10.4,27.1c-1.2,6.6-2.4,13.2-3.6,19.9
		c-0.4,2.2-0.9,5.1,0.6,6.2c1.1,0.7,3.4-1.8,4.9-3.3c6.8-7.2,9.9-16,11.5-25.5c1.1-6.5,0.5-13,0.4-19.6c-0.1-4.9,1-9.4,2.5-14
		c5.9-5.9,12.4-11,20-14.3c14.4-6,27.4-2.6,39.7,5.7c4.2,2.8,7.8,6.3,11.3,9.8c1.5,2.9,4.7,4.7,5.5,8.1c-15-12.7-41.2-16.7-52.1-8.5
		c1.2,2,3.2,2.6,5.3,3.4c8.8,3.2,17.8,4.8,27.1,5.7c6.9,0.7,13.5,3,19.9,5.2c1.7,0.6,2.9,1.8,3.8,3.5c0.8,1.5,0.8,0.1,0.9-0.4
		c1-1.4,0.8-3.1,0.3-4.4C233.9,163.1,231.5,158.1,227.7,153.8L227.7,153.8z M85.2,107.2c-3.6,0-7.3-0.3-10.9,0.1
		c-3.5,0.4-7.1,1.5-10.6,2.2c-3.4,0.7-6.9,1.4-10.3,2.1c0-0.3-0.1-0.6-0.1-0.9C63.2,104.9,73.8,103.3,85.2,107.2L85.2,107.2z
		 M8.2,121.5c2.2,14.6,3.3,29.5,13,41.9C7.8,151.5,3.9,135.2,8.2,121.5z M48.7,150.8c3.8,3.5,7.5,7.2,10.9,11
		c6.7,7.4,11.6,16.3,18.9,23.2C63.6,177.8,53.1,167,48.7,150.8L48.7,150.8z M90.2,204.1c-4.6,9.6-11.6,17.4-18.2,25.5
		c-0.8-0.5-1.2,2.4-2.2,0.2c0.9-3.1,2.3-5.9,3.6-8.9c3.8-8.4,12.4-12.6,17.7-19.5C91,202.4,90.6,203.3,90.2,204.1L90.2,204.1z
		 M137.4,211.6c0.5-15.1,7.1-40.1,11.5-44C150.2,193.4,144.2,204.4,137.4,211.6z M148.5,132.9c12-7.9,23.9-5.2,36.1-1.4
		C172.7,135.6,160.7,131,148.5,132.9z M213.5,162.8c-11-1.3-22.1-2.9-32.5-7.4c15-5,42.5,1.7,49,12.1
		C224.4,165.8,219.3,163.4,213.5,162.8L213.5,162.8z"/>
	<rect x="-32.1" y="-97.2" class="st0" width="574.1" height="567"/>
	<rect x="4.3" y="-3.2" class="st0" width="510.3" height="235.7"/>
</g>
<g id="layer1" transform="translate(-163.06 -372.4)">
	<path id="path2395" class="st1" d="M413.7,428.4c-3.3-22.7-21.7-31.7-29.1-35c-6.6-3-8-8.4-8-8.4s-1.8,6.1-1.8,9.1
		c0,3-0.7,16.8,4.7,28.4c5.3,11.6,21.5,15.7,26.2,21.4c4.7,5.7,2.9,15.7,2.9,15.7s-0.2-8-5.5-12.7c-5.3-4.8-18.4-4.8-25.7-18.4
		c-7.3-13.6-7.9-39.1-1.6-48.7c3.1-4.7,0.2,2.5,5.1,7.1c4.5,4.2,18.2,8.5,26.2,16.8C416.2,413.1,413.9,428.8,413.7,428.4
		L413.7,428.4z"/>
	<path id="path3199" class="st1" d="M403.5,437.7c1.9-9,1.9-13.1-3.5-18.8c-5.4-5.8-10.7-3.9-16.8-14.1
		c3.1,12.5,10.9,11.5,15.2,18.4C402.8,429.8,403.1,437.4,403.5,437.7z"/>
	<path id="path3201" class="st1" d="M420.5,427.4c8.6-2.8,12-4.9,14.2-12.5c2.2-7.7-2.1-11.5,3.6-21.9c-9,9-4.3,15.5-7.9,22.7
		C426.8,422.9,420.5,426.9,420.5,427.4z"/>
	<path id="path3203" class="st1" d="M438.2,436.9c6.7,6.2,10.2,8.2,17.6,6.3c7.6-1.9,8.6-7.6,20.3-7.8c-12.1-3.5-15.2,3.9-23.2,4.3
		C445.1,440.2,438.6,436.6,438.2,436.9L438.2,436.9z"/>
	<path id="path3205" class="st1" d="M439.4,458.7c-1.9,9-1.9,13.1,3.5,18.8c5.4,5.8,10.7,3.9,16.8,14.1
		c-3.1-12.5-10.9-11.5-15.2-18.4C440.1,466.6,439.8,459,439.4,458.7z"/>
	<path id="path3207" class="st1" d="M423.7,469.2c-8.6,2.8-12,4.9-14.2,12.5c-2.2,7.7,2.1,11.5-3.6,21.9c9-9,4.3-15.5,7.9-22.7
		C417.4,473.7,423.7,469.7,423.7,469.2L423.7,469.2z"/>
	<path id="path3209" class="st1" d="M407.6,459.7c-6.7-6.2-10.2-8.2-17.6-6.3c-7.6,1.9-8.6,7.6-20.3,7.8c12.1,3.5,15.2-3.9,23.2-4.3
		C400.6,456.4,407.2,460,407.6,459.7L407.6,459.7z"/>
	<path id="path2391" class="st1" d="M434.3,430.4c17.5-14.3,15.9-35.1,15.1-43.3c-0.8-7.3,3.1-11.3,3.1-11.3s-6.1,1.5-8.6,3
		c-2.5,1.5-14.5,7.8-21.7,18.3c-7.1,10.5-2.5,26.9-5,33.9s-11.8,10.4-11.8,10.4s6.6-4.2,8-11.3c1.4-7.1-5.2-18.7,2.7-32.1
		c7.9-13.3,29.1-26.6,40.3-25.7c5.5,0.4-2,1.5-3.4,8.1c-1.3,6.1,1.9,20.3-1.1,31.7C448.4,425,434.1,430.9,434.3,430.4L434.3,430.4z"
		/>
	<path id="path2393" class="st1" d="M443.2,449.1c20.9,8.4,37.6-3.4,44.1-8.3c5.8-4.3,11.1-2.9,11.1-2.9s-4.3-4.6-6.8-6.1
		c-2.5-1.5-13.9-9-26.3-10.1c-12.5-1.1-24,11.3-31.1,12.5c-7.1,1.3-14.7-5.3-14.7-5.3s6.8,3.8,13.5,1.4c6.7-2.3,13.2-14,28.4-13.6
		c15.2,0.3,37,12.5,41.9,23c2.4,5.1-2.2-1-8.5,1c-5.8,1.9-16.2,11.9-27.3,14.8C454.8,459,442.7,449.1,443.2,449.1L443.2,449.1z"/>
	<path id="path2396" class="st1" d="M430.6,465.8c3.3,22.7,21.7,31.7,29.1,35c6.6,3,8,8.4,8,8.4s1.8-6.1,1.8-9.1
		c0-3,0.7-16.8-4.7-28.4c-5.3-11.6-21.5-15.7-26.2-21.4c-4.7-5.7-2.9-15.7-2.9-15.7s0.2,8,5.5,12.7s18.4,4.8,25.7,18.4
		c7.3,13.6,7.9,39.1,1.6,48.7c-3.1,4.7-0.2-2.5-5.1-7c-4.5-4.2-18.2-8.5-26.2-16.8C428.1,481,430.4,465.3,430.6,465.8L430.6,465.8z"
		/>
	<path id="path2398" class="st1" d="M410.5,463.4c-17.5,14.3-15.9,35.1-15.1,43.3c0.8,7.3-3.1,11.3-3.1,11.3s6.1-1.5,8.6-3
		c2.5-1.5,14.5-7.8,21.7-18.4c7.1-10.5,2.5-26.9,5-33.9c2.5-7,11.8-10.4,11.8-10.4s-6.6,4.2-8,11.3c-1.4,7.1,5.2,18.7-2.7,32.1
		s-29.1,26.6-40.3,25.7c-5.5-0.4,2-1.5,3.4-8.1c1.3-6.1-1.9-20.3,1.1-31.7C396.4,468.8,410.8,463,410.5,463.4L410.5,463.4z"/>
	<path id="path2400" class="st1" d="M401.9,445c-20.9-8.4-37.6,3.4-44.1,8.3c-5.8,4.3-11.1,2.9-11.1,2.9s4.3,4.6,6.8,6.1
		s13.9,9,26.3,10.1c12.5,1.1,24-11.3,31.1-12.5s14.7,5.3,14.7,5.3s-6.8-3.8-13.5-1.4c-6.7,2.3-13.2,14-28.4,13.6
		c-15.2-0.3-37-12.5-41.9-23c-2.4-5.1,2.2,1,8.5-1c5.8-1.9,16.2-11.9,27.3-14.8C390.3,435.2,402.4,445,401.9,445L401.9,445z"/>
</g>
</svg>
